<svg xmlns="http://www.w3.org/2000/svg" width="1640" height="1020" viewBox="-20 -20 1640 1020"><g id="o1:55" transform="translate(0, 0)"><rect x="0" y="0" width="1600" height="980" fill="#ffffff" stroke="none" stroke-width="0" rx="0" ry="0" /></g><g id="n1:10" transform="translate(50, 36)"><g id="a1:72" transform="translate(0, 0)"><text font-size="56" font-family="Noto Sans SC" font-weight="bold" fill="#0f172a" text-anchor="start" dominant-baseline="alphabetic" x="0"><tspan x="0" y="46.589"><tspan x="0" text-anchor="start">全球主分组结构</tspan></tspan></text></g><g id="a1:73" transform="translate(0, 112.589)"><text font-size="24" font-family="Noto Sans SC" font-weight="normal" fill="#64748b" text-anchor="start" dominant-baseline="middle" x="0" y="0"><tspan x="0" y="0"><tspan x="0" text-anchor="start" y="0">下载侧与收入侧的Top5国家地区份额结构·单位：%</tspan></tspan></text></g><g id="c1:24" transform="translate(0, 178.589)"><path fill="none" stroke="#e2e8f0" stroke-width="2" stroke-linecap="round" stroke-linejoin="round" d="M 0 0 L 1540 0" /></g><g id="n1:11" transform="translate(478.7, 213.4826)"><g id="o1:56" transform="translate(-5.8, 5.3064)"><rect x="0" y="0" width="17.6" height="17.6" fill="#5b5ce2" stroke="none" stroke-width="0" rx="2" ry="2" /></g><g id="a1:74" transform="translate(22.8, 0)"><text font-size="24" font-family="Noto Sans SC" font-weight="normal" fill="#334155" text-anchor="start" dominant-baseline="alphabetic" x="0"><tspan x="0" y="20.706"><tspan x="0" text-anchor="start">US</tspan></tspan></text></g><g id="o1:57" transform="translate(123.6, 5.3064)"><rect x="0" y="0" width="17.6" height="17.6" fill="#20a7a0" stroke="none" stroke-width="0" rx="2" ry="2" /></g><g id="a1:75" transform="translate(152.2, 0)"><text font-size="24" font-family="Noto Sans SC" font-weight="normal" fill="#334155" text-anchor="start" dominant-baseline="alphabetic" x="0"><tspan x="0" y="20.706"><tspan x="0" text-anchor="start">T1</tspan></tspan></text></g><g id="o1:58" transform="translate(253, 5.3064)"><rect x="0" y="0" width="17.6" height="17.6" fill="#63bce3" stroke="none" stroke-width="0" rx="2" ry="2" /></g><g id="a1:76" transform="translate(281.6, 0)"><text font-size="24" font-family="Noto Sans SC" font-weight="normal" fill="#334155" text-anchor="start" dominant-baseline="alphabetic" x="0"><tspan x="0" y="20.706"><tspan x="0" text-anchor="start">T2</tspan></tspan></text></g><g id="o1:59" transform="translate(382.4, 5.3064)"><rect x="0" y="0" width="17.6" height="17.6" fill="#3867b9" stroke="none" stroke-width="0" rx="2" ry="2" /></g><g id="a1:77" transform="translate(411, 0)"><text font-size="24" font-family="Noto Sans SC" font-weight="normal" fill="#334155" text-anchor="start" dominant-baseline="alphabetic" x="0"><tspan x="0" y="20.706"><tspan x="0" text-anchor="start">T3</tspan></tspan></text></g><g id="o1:60" transform="translate(511.8, 5.3064)"><rect x="0" y="0" width="17.6" height="17.6" fill="#cbd5e1" stroke="none" stroke-width="0" rx="2" ry="2" /></g><g id="a1:78" transform="translate(540.4, 0)"><text font-size="24" font-family="Noto Sans SC" font-weight="normal" fill="#334155" text-anchor="start" dominant-baseline="alphabetic" x="0"><tspan x="0" y="20.706"><tspan x="0" text-anchor="start">其他</tspan></tspan></text></g></g><g id="c1:25" transform="translate(220, 372.7894)"><path fill="none" stroke="#e2e8f0" stroke-width="1" stroke-linecap="round" stroke-linejoin="round" d="M 0 0 L 1100 0" /></g><g id="c1:26" transform="translate(220, 834.7894)"><path fill="none" stroke="#cbd5e1" stroke-width="2" stroke-linecap="round" stroke-linejoin="round" d="M 0 0 L 1100 0" /></g><g id="a1:79" transform="translate(180.18, 346.583)"><text font-size="24" font-family="Noto Sans SC" font-weight="normal" fill="#94a3b8" text-anchor="start" dominant-baseline="alphabetic" x="0"><tspan x="0" y="20.706"><tspan x="0" text-anchor="start">100%</tspan></tspan></text></g><g id="a1:80" transform="translate(197.274, 819.583)"><text font-size="24" font-family="Noto Sans SC" font-weight="normal" fill="#94a3b8" text-anchor="start" dominant-baseline="alphabetic" x="0"><tspan x="0" y="20.706"><tspan x="0" text-anchor="start">0%</tspan></tspan></text></g><g id="a1:81" transform="translate(462, 329.5788)"><text font-size="36" font-family="Noto Sans SC" font-weight="bold" fill="#0f172a" text-anchor="middle" dominant-baseline="middle" x="0" y="0"><tspan x="0" y="0" text-anchor="middle"><tspan x="0" text-anchor="middle" y="0">下载侧</tspan></tspan></text></g><g id="o1:61" transform="translate(352, 659.2294)"><rect x="0" y="0" width="220" height="175.56" fill="#3867b9" stroke="none" stroke-width="0" rx="0" ry="0" /></g><g id="o1:62" transform="translate(352, 520.6294)"><rect x="0" y="0" width="220" height="138.6" fill="#63bce3" stroke="none" stroke-width="0" rx="0" ry="0" /></g><g id="o1:63" transform="translate(352, 437.4694)"><rect x="0" y="0" width="220" height="83.16" fill="#20a7a0" stroke="none" stroke-width="0" rx="0" ry="0" /></g><g id="o1:64" transform="translate(352, 382.0294)"><rect x="0" y="0" width="220" height="55.44" fill="#5b5ce2" stroke="none" stroke-width="0" rx="0" ry="0" /></g><g id="o1:65" transform="translate(352, 372.7894)"><rect x="0" y="0" width="220" height="9.24" fill="#cbd5e1" stroke="none" stroke-width="0" rx="0" ry="0" /></g><g id="o1:66" transform="translate(352, 372.7894)"><rect x="0" y="0" width="220" height="462" fill="none" stroke="#cbd5e1" stroke-width="1" rx="0" ry="0" /></g><g id="a1:83" transform="translate(462, 747.0094)"><text font-size="24" font-family="Noto Sans SC" font-weight="normal" fill="#ffffff" text-anchor="middle" dominant-baseline="middle" x="0" y="0"><tspan x="0" y="0" text-anchor="middle"><tspan x="0" text-anchor="middle" y="0">T3 38.0%</tspan></tspan></text></g><g id="a1:84" transform="translate(462, 589.9294)"><text font-size="24" font-family="Noto Sans SC" font-weight="normal" fill="#ffffff" text-anchor="middle" dominant-baseline="middle" x="0" y="0"><tspan x="0" y="0" text-anchor="middle"><tspan x="0" text-anchor="middle" y="0">T2 30.0%</tspan></tspan></text></g><g id="a1:85" transform="translate(462, 479.0494)"><text font-size="24" font-family="Noto Sans SC" font-weight="normal" fill="#ffffff" text-anchor="middle" dominant-baseline="middle" x="0" y="0"><tspan x="0" y="0" text-anchor="middle"><tspan x="0" text-anchor="middle" y="0">T1 18.0%</tspan></tspan></text></g><g id="a1:86" transform="translate(462, 409.7494)"><text font-size="24" font-family="Noto Sans SC" font-weight="normal" fill="#ffffff" text-anchor="middle" dominant-baseline="middle" x="0" y="0"><tspan x="0" y="0" text-anchor="middle"><tspan x="0" text-anchor="middle" y="0">US 12.0%</tspan></tspan></text></g><g id="c1:27" transform="translate(572, 372.7894)"><path fill="none" stroke="#94a3b8" stroke-width="2" stroke-linecap="round" stroke-linejoin="round" d="M 0 0 L 22 0" /></g><g id="a1:87" transform="translate(605, 372.7894)"><text font-size="24" font-family="Noto Sans SC" font-weight="normal" fill="#475569" text-anchor="start" dominant-baseline="middle" x="0" y="0"><tspan x="0" y="0"><tspan x="0" text-anchor="start" y="0">其他2.0%</tspan></tspan></text></g><g id="a1:88" transform="translate(462, 878)"><text font-size="36" font-family="Noto Sans SC" font-weight="bold" fill="#0f172a" text-anchor="middle" dominant-baseline="middle" x="0" y="0"><tspan x="0" y="0" text-anchor="middle"><tspan x="0" text-anchor="middle" y="0">下载侧</tspan></tspan></text></g><g id="a1:89" transform="translate(1078, 329.5788)"><text font-size="36" font-family="Noto Sans SC" font-weight="bold" fill="#0f172a" text-anchor="middle" dominant-baseline="middle" x="0" y="0"><tspan x="0" y="0" text-anchor="middle"><tspan x="0" text-anchor="middle" y="0">收入侧</tspan></tspan></text></g><g id="o1:67" transform="translate(968, 760.8694)"><rect x="0" y="0" width="220" height="73.92" fill="#3867b9" stroke="none" stroke-width="0" rx="0" ry="0" /></g><g id="o1:68" transform="translate(968, 659.2294)"><rect x="0" y="0" width="220" height="101.64" fill="#63bce3" stroke="none" stroke-width="0" rx="0" ry="0" /></g><g id="o1:69" transform="translate(968, 511.3894)"><rect x="0" y="0" width="220" height="147.84" fill="#20a7a0" stroke="none" stroke-width="0" rx="0" ry="0" /></g><g id="o1:70" transform="translate(968, 382.0294)"><rect x="0" y="0" width="220" height="129.36" fill="#5b5ce2" stroke="none" stroke-width="0" rx="0" ry="0" /></g><g id="o1:71" transform="translate(968, 372.7894)"><rect x="0" y="0" width="220" height="9.24" fill="#cbd5e1" stroke="none" stroke-width="0" rx="0" ry="0" /></g><g id="o1:72" transform="translate(968, 372.7894)"><rect x="0" y="0" width="220" height="462" fill="none" stroke="#cbd5e1" stroke-width="1" rx="0" ry="0" /></g><g id="a1:91" transform="translate(1078, 797.8294)"><text font-size="24" font-family="Noto Sans SC" font-weight="normal" fill="#ffffff" text-anchor="middle" dominant-baseline="middle" x="0" y="0"><tspan x="0" y="0" text-anchor="middle"><tspan x="0" text-anchor="middle" y="0">T3 16.0%</tspan></tspan></text></g><g id="a1:92" transform="translate(1078, 710.0494)"><text font-size="24" font-family="Noto Sans SC" font-weight="normal" fill="#ffffff" text-anchor="middle" dominant-baseline="middle" x="0" y="0"><tspan x="0" y="0" text-anchor="middle"><tspan x="0" text-anchor="middle" y="0">T2 22.0%</tspan></tspan></text></g><g id="a1:93" transform="translate(1078, 585.3094)"><text font-size="24" font-family="Noto Sans SC" font-weight="normal" fill="#ffffff" text-anchor="middle" dominant-baseline="middle" x="0" y="0"><tspan x="0" y="0" text-anchor="middle"><tspan x="0" text-anchor="middle" y="0">T1 32.0%</tspan></tspan></text></g><g id="a1:94" transform="translate(1078, 446.7094)"><text font-size="24" font-family="Noto Sans SC" font-weight="normal" fill="#ffffff" text-anchor="middle" dominant-baseline="middle" x="0" y="0"><tspan x="0" y="0" text-anchor="middle"><tspan x="0" text-anchor="middle" y="0">US 28.0%</tspan></tspan></text></g><g id="c1:28" transform="translate(1188, 372.7894)"><path fill="none" stroke="#94a3b8" stroke-width="2" stroke-linecap="round" stroke-linejoin="round" d="M 0 0 L 22 0" /></g><g id="a1:95" transform="translate(1221, 372.7894)"><text font-size="24" font-family="Noto Sans SC" font-weight="normal" fill="#475569" text-anchor="start" dominant-baseline="middle" x="0" y="0"><tspan x="0" y="0"><tspan x="0" text-anchor="start" y="0">其他2.0%</tspan></tspan></text></g><g id="a1:96" transform="translate(1078, 878)"><text font-size="36" font-family="Noto Sans SC" font-weight="bold" fill="#0f172a" text-anchor="middle" dominant-baseline="middle" x="0" y="0"><tspan x="0" y="0" text-anchor="middle"><tspan x="0" text-anchor="middle" y="0">收入侧</tspan></tspan></text></g></g></svg>