<svg xmlns="http://www.w3.org/2000/svg" width="1640" height="1020" viewBox="-20 -20 1640 1020"><g id="o1:49" transform="translate(0, 0)"><rect x="0" y="0" width="1600" height="980" fill="#ffffff" stroke="none" stroke-width="0" rx="0" ry="0" /></g><g id="n1:10" transform="translate(50, 36)"><g id="a1:92" transform="translate(0, 0)"><text font-size="56" font-family="Noto Sans SC" font-weight="bold" fill="#182230" text-anchor="start" dominant-baseline="alphabetic" x="0"><tspan x="0" y="46.589"><tspan x="0" text-anchor="start">补充地区组下载与收入偏好</tspan></tspan></text></g><g id="a1:93" transform="translate(0, 112.589)"><text font-size="24" font-family="Noto Sans SC" font-weight="normal" fill="#667085" text-anchor="start" dominant-baseline="middle" x="0" y="0"><tspan x="0" y="0"><tspan x="0" text-anchor="start" y="0">下载侧与收入侧的Top5国家地区份额结构·单位：%</tspan></tspan></text></g><g id="c1:40" transform="translate(0, 178.589)"><path fill="none" stroke="#e5e7eb" stroke-width="2" stroke-linecap="round" stroke-linejoin="round" d="M 0 0 L 1540 0" /></g><g id="o1:50" transform="translate(638.9, 219.889)"><ellipse fill="#2f67e8" stroke="none" stroke-width="0" cx="7.7" cy="7.7" rx="7.7" ry="7.7" /></g><g id="a1:94" transform="translate(662, 213.4826)"><text font-size="24" font-family="Noto Sans SC" font-weight="bold" fill="#344054" text-anchor="start" dominant-baseline="alphabetic" x="0"><tspan x="0" y="20.706"><tspan x="0" text-anchor="start">下载侧</tspan></tspan></text></g><g id="o1:51" transform="translate(806, 219.889)"><ellipse fill="#f05a00" stroke="none" stroke-width="0" cx="7.7" cy="7.7" rx="7.7" ry="7.7" /></g><g id="a1:95" transform="translate(829.1, 213.4826)"><text font-size="24" font-family="Noto Sans SC" font-weight="bold" fill="#344054" text-anchor="start" dominant-baseline="alphabetic" x="0"><tspan x="0" y="20.706"><tspan x="0" text-anchor="start">收入侧</tspan></tspan></text></g><g id="a1:96" transform="translate(692.637, 296.4588)"><text font-size="24" font-family="Noto Sans SC" font-weight="normal" fill="#98a2b3" text-anchor="start" dominant-baseline="alphabetic" x="0"><tspan x="0" y="20.706"><tspan x="0" text-anchor="start">0%</tspan></tspan></text></g><g id="a1:97" transform="translate(524.4635, 296.4588)"><text font-size="24" font-family="Noto Sans SC" font-weight="normal" fill="#98a2b3" text-anchor="start" dominant-baseline="alphabetic" x="0"><tspan x="0" y="20.706"><tspan x="0" text-anchor="start">10%</tspan></tspan></text></g><g id="a1:98" transform="translate(361.6635, 296.4588)"><text font-size="24" font-family="Noto Sans SC" font-weight="normal" fill="#98a2b3" text-anchor="start" dominant-baseline="alphabetic" x="0"><tspan x="0" y="20.706"><tspan x="0" text-anchor="start">20%</tspan></tspan></text></g><g id="a1:99" transform="translate(197.7635, 296.4588)"><text font-size="24" font-family="Noto Sans SC" font-weight="normal" fill="#98a2b3" text-anchor="start" dominant-baseline="alphabetic" x="0"><tspan x="0" y="20.706"><tspan x="0" text-anchor="start">30%</tspan></tspan></text></g><g id="a1:100" transform="translate(116.3635, 296.4588)"><text font-size="24" font-family="Noto Sans SC" font-weight="normal" fill="#98a2b3" text-anchor="start" dominant-baseline="alphabetic" x="0"><tspan x="0" y="20.706"><tspan x="0" text-anchor="start">35%</tspan></tspan></text></g><g id="a1:101" transform="translate(824.637, 296.4588)"><text font-size="24" font-family="Noto Sans SC" font-weight="normal" fill="#98a2b3" text-anchor="start" dominant-baseline="alphabetic" x="0"><tspan x="0" y="20.706"><tspan x="0" text-anchor="start">0%</tspan></tspan></text></g><g id="a1:102" transform="translate(984.2635, 296.4588)"><text font-size="24" font-family="Noto Sans SC" font-weight="normal" fill="#98a2b3" text-anchor="start" dominant-baseline="alphabetic" x="0"><tspan x="0" y="20.706"><tspan x="0" text-anchor="start">10%</tspan></tspan></text></g><g id="a1:103" transform="translate(1147.0635, 296.4588)"><text font-size="24" font-family="Noto Sans SC" font-weight="normal" fill="#98a2b3" text-anchor="start" dominant-baseline="alphabetic" x="0"><tspan x="0" y="20.706"><tspan x="0" text-anchor="start">20%</tspan></tspan></text></g><g id="a1:104" transform="translate(1310.9635, 296.4588)"><text font-size="24" font-family="Noto Sans SC" font-weight="normal" fill="#98a2b3" text-anchor="start" dominant-baseline="alphabetic" x="0"><tspan x="0" y="20.706"><tspan x="0" text-anchor="start">30%</tspan></tspan></text></g><g id="a1:105" transform="translate(1392.3635, 296.4588)"><text font-size="24" font-family="Noto Sans SC" font-weight="normal" fill="#98a2b3" text-anchor="start" dominant-baseline="alphabetic" x="0"><tspan x="0" y="20.706"><tspan x="0" text-anchor="start">35%</tspan></tspan></text></g><g id="n1:11" transform="translate(132, 336.9652)"><g id="c1:41" transform="translate(0, 0)"><path fill="none" stroke="#e5e7eb" stroke-width="2" stroke-dasharray="4 6" d="M 0 0 L 0 490.6" /></g><g id="c1:42" transform="translate(81.39999999999998, 0)"><path fill="none" stroke="#e5e7eb" stroke-width="2" stroke-dasharray="4 6" d="M 0 0 L 0 490.6" /></g><g id="c1:43" transform="translate(245.3, 0)"><path fill="none" stroke="#e5e7eb" stroke-width="2" stroke-dasharray="4 6" d="M 0 0 L 0 490.6" /></g><g id="c1:44" transform="translate(408.1, 0)"><path fill="none" stroke="#e5e7eb" stroke-width="2" stroke-dasharray="4 6" d="M 0 0 L 0 490.6" /></g><g id="c1:45" transform="translate(572, 0)"><path fill="none" stroke="#e5e7eb" stroke-width="2" stroke-dasharray="4 6" d="M 0 0 L 0 490.6" /></g><g id="c1:46" transform="translate(704, 0)"><path fill="none" stroke="#e5e7eb" stroke-width="2" stroke-dasharray="4 6" d="M 0 0 L 0 490.6" /></g><g id="c1:47" transform="translate(867.9000000000001, 0)"><path fill="none" stroke="#e5e7eb" stroke-width="2" stroke-dasharray="4 6" d="M 0 0 L 0 490.6" /></g><g id="c1:48" transform="translate(1030.7, 0)"><path fill="none" stroke="#e5e7eb" stroke-width="2" stroke-dasharray="4 6" d="M 0 0 L 0 490.6" /></g><g id="c1:49" transform="translate(1194.6, 0)"><path fill="none" stroke="#e5e7eb" stroke-width="2" stroke-dasharray="4 6" d="M 0 0 L 0 490.6" /></g><g id="c1:50" transform="translate(1276, 0)"><path fill="none" stroke="#e5e7eb" stroke-width="2" stroke-dasharray="4 6" d="M 0 0 L 0 490.6" /></g></g><g id="n1:12" transform="translate(88, 451.3652)"><g id="region-top-boundary" transform="translate(0, -125.4)"><path fill="none" stroke="#e5e7eb" stroke-width="1" stroke-linecap="round" stroke-linejoin="round" d="M 0 0 L 1364 0" /></g><g id="c1:51" transform="translate(0, 6.6)"><path fill="none" stroke="#e5e7eb" stroke-width="1" stroke-linecap="round" stroke-linejoin="round" d="M 0 0 L 1364 0" /></g><g id="c1:52" transform="translate(0, 138.6)"><path fill="none" stroke="#e5e7eb" stroke-width="1" stroke-linecap="round" stroke-linejoin="round" d="M 0 0 L 1364 0" /></g><g id="c1:53" transform="translate(0, 270.6)"><path fill="none" stroke="#e5e7eb" stroke-width="1" stroke-linecap="round" stroke-linejoin="round" d="M 0 0 L 1364 0" /></g></g><g id="a1:106" transform="translate(770, 391.9652)"><text font-size="24" font-family="Noto Sans SC" font-weight="bold" fill="#182230" text-anchor="middle" dominant-baseline="middle" x="0" y="0"><tspan x="0" y="0" text-anchor="middle"><tspan x="0" text-anchor="middle" y="0">US</tspan></tspan></text></g><g id="o1:52" transform="translate(507.8, 367.7652)"><rect x="0" y="0" width="196.2" height="48.4" fill="#2f67e8" stroke="none" stroke-width="0" rx="24.2" ry="24.2" /></g><g id="a1:107" transform="translate(687, 391.9652)"><text font-size="24" font-family="Noto Sans SC" font-weight="normal" fill="#ffffff" text-anchor="end" dominant-baseline="middle" x="0" y="0"><tspan x="0" y="0" text-anchor="end"><tspan x="0" text-anchor="end" y="0">12.0%</tspan></tspan></text></g><g id="o1:53" transform="translate(836, 367.7652)"><rect x="0" y="0" width="457.8" height="48.4" fill="#f05a00" stroke="none" stroke-width="0" rx="24.2" ry="24.2" /></g><g id="a1:108" transform="translate(853, 391.9652)"><text font-size="24" font-family="Noto Sans SC" font-weight="normal" fill="#ffffff" text-anchor="start" dominant-baseline="middle" x="0" y="0"><tspan x="0" y="0" text-anchor="start"><tspan x="0" text-anchor="start" y="0">28.0%</tspan></tspan></text></g><g id="a1:109" transform="translate(770, 523.9652)"><text font-size="24" font-family="Noto Sans SC" font-weight="bold" fill="#182230" text-anchor="middle" dominant-baseline="middle" x="0" y="0"><tspan x="0" y="0" text-anchor="middle"><tspan x="0" text-anchor="middle" y="0">IN</tspan></tspan></text></g><g id="o1:54" transform="translate(278.9, 499.7652)"><rect x="0" y="0" width="425.1" height="48.4" fill="#2f67e8" stroke="none" stroke-width="0" rx="24.2" ry="24.2" /></g><g id="a1:110" transform="translate(687, 523.9652)"><text font-size="24" font-family="Noto Sans SC" font-weight="normal" fill="#ffffff" text-anchor="end" dominant-baseline="middle" x="0" y="0"><tspan x="0" y="0" text-anchor="end"><tspan x="0" text-anchor="end" y="0">26.0%</tspan></tspan></text></g><g id="o1:55" transform="translate(836, 499.7652)"><rect x="0" y="0" width="163.5" height="48.4" fill="#f05a00" stroke="none" stroke-width="0" rx="24.2" ry="24.2" /></g><g id="a1:111" transform="translate(853, 523.9652)"><text font-size="24" font-family="Noto Sans SC" font-weight="normal" fill="#ffffff" text-anchor="start" dominant-baseline="middle" x="0" y="0"><tspan x="0" y="0" text-anchor="start"><tspan x="0" text-anchor="start" y="0">10.0%</tspan></tspan></text></g><g id="a1:112" transform="translate(770, 655.9652)"><text font-size="24" font-family="Noto Sans SC" font-weight="bold" fill="#182230" text-anchor="middle" dominant-baseline="middle" x="0" y="0"><tspan x="0" y="0" text-anchor="middle"><tspan x="0" text-anchor="middle" y="0">拉美</tspan></tspan></text></g><g id="o1:56" transform="translate(311.6, 631.7652)"><rect x="0" y="0" width="392.4" height="48.4" fill="#2f67e8" stroke="none" stroke-width="0" rx="24.2" ry="24.2" /></g><g id="a1:113" transform="translate(687, 655.9652)"><text font-size="24" font-family="Noto Sans SC" font-weight="normal" fill="#ffffff" text-anchor="end" dominant-baseline="middle" x="0" y="0"><tspan x="0" y="0" text-anchor="end"><tspan x="0" text-anchor="end" y="0">24.0%</tspan></tspan></text></g><g id="o1:57" transform="translate(836, 631.7652)"><rect x="0" y="0" width="228.9" height="48.4" fill="#f05a00" stroke="none" stroke-width="0" rx="24.2" ry="24.2" /></g><g id="a1:114" transform="translate(853, 655.9652)"><text font-size="24" font-family="Noto Sans SC" font-weight="normal" fill="#ffffff" text-anchor="start" dominant-baseline="middle" x="0" y="0"><tspan x="0" y="0" text-anchor="start"><tspan x="0" text-anchor="start" y="0">14.0%</tspan></tspan></text></g><g id="a1:115" transform="translate(770, 787.9652)"><text font-size="24" font-family="Noto Sans SC" font-weight="bold" fill="#182230" text-anchor="middle" dominant-baseline="middle" x="0" y="0"><tspan x="0" y="0" text-anchor="middle"><tspan x="0" text-anchor="middle" y="0">东南亚</tspan></tspan></text></g><g id="o1:58" transform="translate(377, 763.7652)"><rect x="0" y="0" width="327" height="48.4" fill="#2f67e8" stroke="none" stroke-width="0" rx="24.2" ry="24.2" /></g><g id="a1:116" transform="translate(687, 787.9652)"><text font-size="24" font-family="Noto Sans SC" font-weight="normal" fill="#ffffff" text-anchor="end" dominant-baseline="middle" x="0" y="0"><tspan x="0" y="0" text-anchor="end"><tspan x="0" text-anchor="end" y="0">20.0%</tspan></tspan></text></g><g id="o1:59" transform="translate(836, 763.7652)"><rect x="0" y="0" width="294.3" height="48.4" fill="#f05a00" stroke="none" stroke-width="0" rx="24.2" ry="24.2" /></g><g id="a1:117" transform="translate(853, 787.9652)"><text font-size="24" font-family="Noto Sans SC" font-weight="normal" fill="#ffffff" text-anchor="start" dominant-baseline="middle" x="0" y="0"><tspan x="0" y="0" text-anchor="start"><tspan x="0" text-anchor="start" y="0">18.0%</tspan></tspan></text></g><g id="region-note-divider" transform="translate(0, 853.9652)"><path fill="none" stroke="#d9e1ea" stroke-width="1" stroke-linecap="round" stroke-linejoin="round" d="M 0 0 L 1491 0" /></g><g id="a1:118" transform="translate(0, 872)"><text font-size="24" font-family="Noto Sans SC" font-weight="normal" fill="#475467" text-anchor="start" dominant-baseline="alphabetic" x="0"><tspan x="0" y="20.706" text-anchor="start"><tspan x="0" text-anchor="start">IN、拉美、东南亚为可重叠观察组；本图仅使用合成样例数据</tspan></tspan></text></g></g></svg>